<?xml version="1.0" encoding="UTF-8"?>
<svg id="Layer_1" xmlns="http://www.w3.org/2000/svg" version="1.1" viewBox="0 0 1024 1024">
  <!-- Generator: Adobe Illustrator 29.5.1, SVG Export Plug-In . SVG Version: 2.1.0 Build 141)  -->
  <defs>
    <style>
      .st0 {
        fill: none;
      }

      .st1 {
        fill: #fff;
      }

      .st2 {
        fill: #181918;
      }
    </style>
  </defs>
  <rect class="st1" x="221.9" y="219.2" width="585.6" height="585.6"/>
  <path d="M980.1,555.6c24,0,43.7-19.6,43.7-43.7s-19.6-43.7-43.7-43.7h-124.1v-60.8h124.1c24,0,43.7-19.6,43.7-43.7s-19.6-43.7-43.7-43.7h-124.1v-106.8c0-24-19.6-43.7-43.7-43.7h-108.9V43.7C703.5,19.6,683.8,0,659.8,0s-43.7,19.6-43.7,43.7v126.4h-61V43.7C555.1,19.6,535.5,0,511.5,0s-43.7,19.6-43.7,43.7v126.4h-60.4V43.7C407.4,19.6,387.8,0,363.7,0s-43.7,19.6-43.7,43.7v126.4h-102.4c-24,0-43.7,19.6-43.7,43.7v106.8H43.6C19.6,320.5,0,340.1,0,364.2s19.6,43.7,43.7,43.7h130.8v61H43.6C19.6,468.9,0,488.5,0,512.5s19.6,43.7,43.7,43.7h130.8v58.1H43.6C19.6,614.3,0,633.9,0,658s19.6,43.7,43.7,43.7h130.8v106.8c0,24,19.6,43.7,43.7,43.7h102.4v128.5c0,24,19.6,43.7,43.7,43.7s43.7-19.6,43.7-43.7v-128.5h61v128.5c0,24,19.6,43.7,43.7,43.7s43.7-19.6,43.7-43.7v-128.5h60.2v128.5c0,24,19.6,43.7,43.7,43.7s41.4-19.6,43.7-43.7v-128.5h108.9c24,0,43.7-17.3,43.7-43.7v-106.8h124.1c24,0,43.7-19.6,43.7-43.7s-19.6-43.7-43.7-43.7h-124.1v-58.7h123.9ZM768.9,766.8h-509.8v-509.8h509.8v509.8Z"/>
  <g>
    <path class="st0" d="M512,345.4c-94,0-170.4,74.7-170.4,166.6s76.4,166.6,170.4,166.6,170.4-74.7,170.4-166.6-76.4-166.6-170.4-166.6ZM512,641.4c-73.1,0-132.3-57.9-132.3-129.4s59.2-129.4,132.3-129.4,132.3,57.9,132.3,129.4c0,71.5-59.2,129.4-132.3,129.4Z"/>
    <path class="st2" d="M512,324.3c-105.9,0-192,84.2-192,187.7s86.1,187.7,192,187.7,192-84.2,192-187.7-86.1-187.7-192-187.7ZM512,678.6c-94,0-170.4-74.7-170.4-166.6s76.4-166.6,170.4-166.6,170.4,74.7,170.4,166.6-76.4,166.6-170.4,166.6Z"/>
    <path class="st2" d="M512,382.6c-73.1,0-132.3,57.9-132.3,129.4s59.2,129.4,132.3,129.4,132.3-57.9,132.3-129.4c0-71.5-59.2-129.4-132.3-129.4ZM568.3,513.9l-76.6,62.9c-1,.9-2.3,1.3-3.6,1.3s-1.6-.2-2.4-.5c-2-.9-3.2-2.8-3.2-5v-125.8c0-2.2,1.2-4.1,3.2-5,2-.9,4.3-.6,6,.8l76.6,62.9c1.3,1,2,2.6,2,4.2,0,1.6-.7,3.2-2,4.2Z"/>
  </g>
</svg>